# xmcd
#
# Track frame offsets: 
#        150
#        18422
#        35676
#        48526
#        64440
#        78568
#        92723
#        114137
#        124634
#        140609
#        156159
#        172613
#        182135
#        195850
#        207019
#        227433
#        244938
#        257940
#        276017
#        287294
#        313356
#
# Disc length: 4325 seconds
#
# Revision: 0
# Processed by: cddbd v1.5.1PL2 Copyright (c) Steve Scherf et al.
# Submitted via: ExactAudioCopy v0.95b4
#
DISCID=2110e315
DTITLE=Vern Gosdin - Two Albums
DYEAR=1989
DGENRE=Country
TTITLE0=That Just About Does It
TTITLE1=Take Me Home to Alabama
TTITLE2=I'm Still Crazy
TTITLE3=Paradise '83
TTITLE4=Do Me a Favor
TTITLE5=Tangueray
TTITLE6=Alone
TTITLE7=Right in the Wrong Direction
TTITLE8=I'm Only Going Crazy
TTITLE9=You're Not By Yourself
TTITLE10=Do You Believe Me Now
TTITLE11=Tight as Twin Fiddles
TTITLE12=Is It Raining at Your House?
TTITLE13=Set 'Em Up Joe
TTITLE14=There Ain't Nothing Wrong (Just Ain't Nothing Right)
TTITLE15=Chisled in Stone
TTITLE16=Who You Gonna Blame It On This Time
TTITLE17=It's Not Over, Yet
TTITLE18=Nobody Calls from Vegas Just To Say Hello
TTITLE19=I Guess I had Your Leavin' Coming
TTITLE20=Set "Em Up Joe
EXTD=
EXTT0=
EXTT1=
EXTT2=
EXTT3=
EXTT4=
EXTT5=
EXTT6=
EXTT7=
EXTT8=
EXTT9=
EXTT10=
EXTT11=
EXTT12=
EXTT13=
EXTT14=
EXTT15=
EXTT16=
EXTT17=
EXTT18=
EXTT19=
EXTT20=
PLAYORDER=
